<svg width="60" height="60" viewBox="0 0 60 60" fill="none" xmlns="http://www.w3.org/2000/svg">
<path d="M46.2477 55.0348C44.3968 57.8103 41.1427 57.1779 29.6468 57.3707C15.8255 57.6006 12.5789 58.1234 11.1906 55.1163C9.80249 52.1093 16.4503 35.4995 16.4503 35.4995C18.0848 37.2496 24.7089 38.9847 28.9503 38.9995C33.1757 39.0144 39.1046 38.265 40.9503 35.9995C42.6516 40.9203 47.605 52.9995 46.2477 55.0348Z" fill="#289BEE" stroke="black" stroke-miterlimit="10"/>
<path d="M40.2952 36.0706C33.8658 40.2031 23.588 39.7013 17.8046 36.1988C14.0677 33.3868 12.0786 24.0931 16.395 18.9995L41.6444 19.0814C45.0553 23.6589 44.7444 32.1303 40.2952 36.0706Z" fill="#FDE0C7" stroke="black" stroke-miterlimit="10"/>
<path d="M29.0243 21.9951C2.95029 21.7703 12.9503 14.9995 19.0598 15.0141C22.487 15.2897 36.1169 15.2208 38.8857 15.2017C46.4503 15.4995 52.9994 22.2018 29.0243 21.9951Z" fill="#289BEE" stroke="black"/>
<path d="M38.9503 15.4402C35.2741 19.1823 22.0086 18.5638 19.9503 15.2481C20.763 10.776 25.4228 2.13534 31.6472 2.00471C37.8717 1.87408 37.4503 4.49954 36.9503 4.99952C35.9503 5.99952 33.2385 4.6288 34.336 6.79186C35.8665 9.81936 37.3704 12.5664 38.9503 15.4402Z" fill="#289BEE" stroke="black" stroke-miterlimit="10"/>
<path d="M26.4963 31.4839C27.4559 33.3526 30.1075 33.3526 31.0639 31.4839" stroke="black" stroke-miterlimit="10" stroke-linecap="round"/>
<path d="M34.905 27.9995C35.7334 27.9995 36.405 27.328 36.405 26.4995C36.405 25.6711 35.7334 24.9995 34.905 24.9995C34.0765 24.9995 33.405 25.6711 33.405 26.4995C33.405 27.328 34.0765 27.9995 34.905 27.9995Z" fill="black"/>
<path d="M22.905 27.9995C23.7334 27.9995 24.405 27.328 24.405 26.4995C24.405 25.6711 23.7334 24.9995 22.905 24.9995C22.0765 24.9995 21.405 25.6711 21.405 26.4995C21.405 27.328 22.0765 27.9995 22.905 27.9995Z" fill="black"/>
<line x1="34.9785" y1="47.293" x2="47.2437" y2="35.9713" stroke="black" stroke-linecap="round"/>
<circle cx="46.9503" cy="35.9995" r="2" fill="#FFCF57" stroke="black"/>
</svg>
